<?xml version="1.0" encoding="utf-8"?>
<!-- Generator: Adobe Illustrator 19.2.1, SVG Export Plug-In . SVG Version: 6.00 Build 0)  -->
<svg version="1.1" id="layer" xmlns="http://www.w3.org/2000/svg" xmlns:xlink="http://www.w3.org/1999/xlink" x="0px" y="0px"
	 viewBox="0 0 652 652" style="enable-background:new 0 0 652 652;" xml:space="preserve">
<style type="text/css">
	.st0{fill:#FF4A00;}
</style>
<path class="st0" d="M380,303.9h-15c-0.3-1.4-0.6-2.8-0.7-4.3c-0.3-3.2-0.3-6.3,0-9.5c0.2-1.6,0.4-3,0.7-4.3h37.3v118.5
	c-1.9,0.3-3.7,0.6-5.6,0.7c-1.9,0.1-3.8,0.2-5.6,0.2c-1.8,0-3.6-0.1-5.4-0.2c-1.9-0.1-3.8-0.4-5.6-0.7V303.9L380,303.9z
	 M509.8,333.7c0-4.3-0.6-8.4-1.7-12.4c-1-3.7-2.8-7.2-5.1-10.3c-2.3-3-5.2-5.4-8.5-7c-3.4-1.8-7.6-2.7-12.3-2.7
	c-9.4,0-16.5,2.9-21.5,8.6c-5,5.7-8,13.6-9.1,23.8C451.6,333.7,509.8,333.7,509.8,333.7z M451.4,350.8c0.3,12.9,3.6,22.4,10,28.4
	c6.4,6,15.8,9,28.2,9c10.9,0,21.2-1.9,31.1-5.8c1.2,2.3,2.2,5.1,3,8.4c0.8,3.2,1.2,6.5,1.4,9.8c-5.1,2.2-10.6,3.8-16.7,4.9
	c-6.1,1.1-12.8,1.6-20.1,1.6c-10.7,0-19.9-1.5-27.6-4.5c-7.7-3-14-7.2-19-12.7c-5-5.5-8.6-11.9-10.9-19.4
	c-2.3-7.5-3.5-15.7-3.5-24.6c0-8.8,1.1-17,3.3-24.6c2.2-7.6,5.6-14.2,10.2-19.9c4.6-5.6,10.4-10.1,17.4-13.4c7-3.3,15.2-5,24.7-5
	c8.1,0,15.3,1.4,21.4,4.2c5.9,2.6,11.2,6.5,15.4,11.4c4.1,4.9,7.3,10.6,9.4,17.3c2.1,6.7,3.2,14,3.2,21.8c0,2.2-0.1,4.4-0.2,6.8
	c-0.1,2-0.3,4.1-0.5,6.1L451.4,350.8C451.4,350.8,451.4,350.8,451.4,350.8z M557.4,285.9c1.6-0.3,3.2-0.5,4.8-0.7
	c1.6-0.2,3.2-0.2,4.8-0.2c1.7,0,3.4,0.1,5.1,0.2c1.7,0.2,3.2,0.4,4.6,0.7c0.5,2.3,0.9,5.4,1.4,9.1c0.5,3.8,0.7,7,0.7,9.6
	c3.3-5.3,7.7-10,12.8-13.6c5.3-3.8,12.1-5.8,20.4-5.8c1.2,0,2.5,0,3.8,0.1c1.1,0.1,2.2,0.2,3.3,0.3c0.3,1.4,0.5,2.9,0.7,4.4
	c0.3,3.5,0.3,7.1-0.1,10.6c-0.2,1.9-0.5,3.9-0.8,5.8c-1.2-0.3-2.5-0.5-3.8-0.5h-3.1c-4.1,0-8.1,0.6-11.9,1.7
	c-3.8,1.2-7.3,3.3-10.1,6.1c-3,2.9-5.4,6.9-7.1,12c-1.8,5.1-2.6,11.6-2.6,19.6v58.9c-1.9,0.3-3.7,0.6-5.6,0.7
	c-1.9,0.1-3.8,0.2-5.6,0.2c-3.9,0-7.7-0.3-11.5-0.9L557.4,285.9L557.4,285.9z M396,222.6c0,2.8-0.5,5.5-1.5,8.1
	c-2.6,1-5.3,1.5-8.1,1.5h0c-2.8,0-5.5-0.5-8.1-1.5c-1-2.6-1.5-5.3-1.5-8.1v0c0-2.9,0.5-5.6,1.5-8.1c2.6-1,5.3-1.5,8.1-1.5h0
	c2.8,0,5.6,0.5,8.1,1.5C395.5,217,396,219.8,396,222.6L396,222.6L396,222.6z M424.1,216.2h-22.3l15.8-15.8c-2.5-3.5-5.5-6.6-9-9
	l-15.8,15.8v-22.4c-2.1-0.4-4.2-0.5-6.3-0.5h0c-2.2,0-4.3,0.2-6.3,0.5v22.4l-15.8-15.8c-1.7,1.2-3.4,2.6-4.9,4.1l0,0
	c-1.5,1.5-2.9,3.2-4.1,4.9l15.8,15.8h-22.3c0,0-0.5,4.2-0.5,6.4v0c0,2.2,0.2,4.3,0.5,6.4H371l-15.8,15.8c2.5,3.5,5.5,6.5,9,9
	L380,238v22.4c2.1,0.3,4.2,0.5,6.3,0.5h0.1c2.1,0,4.2-0.2,6.3-0.5V238l15.8,15.8c3.5-2.5,6.5-5.5,9-9l-15.8-15.8h22.3
	c0.3-2.1,0.5-4.2,0.5-6.4v-0.1C424.6,220.4,424.4,218.3,424.1,216.2L424.1,216.2z M20,401.2l62.1-97.1H27.4
	c-0.5-3.1-0.7-6.1-0.7-9.2c0-3.2,0.2-6.2,0.7-9h88.6l1.2,3l-62.6,97.3h58.7c0.5,3.1,0.7,6.2,0.7,9.5c0,3.1-0.2,6-0.7,8.8h-92
	L20,401.2L20,401.2z M199.2,348.7c-2.9-0.4-5.8-0.7-8.7-0.9c-3-0.3-6-0.4-9-0.5c-9.5,0-16.8,1.8-21.7,5.3c-5,3.5-7.5,8.9-7.5,16.2
	c0,4.6,0.8,8.2,2.5,10.9c1.7,2.6,3.8,4.6,6.3,6c2.6,1.4,5.5,2.3,8.4,2.5c3.1,0.3,6,0.5,8.7,0.5c3.5,0,7.2-0.2,10.9-0.6
	c3.8-0.4,7.1-1,10-1.7L199.2,348.7L199.2,348.7z M199.2,326.3c0-9.1-2.3-15.4-6.9-19c-4.6-3.5-11.3-5.3-20-5.3
	c-5.4,0-10.4,0.4-15.1,1.3c-4.6,0.8-9.2,2-13.7,3.3c-2.9-5.1-4.4-11.2-4.4-18.3c5.2-1.7,11-3,17.3-3.9c6-0.9,12.1-1.4,18.2-1.4
	c15.3,0,27,3.5,35,10.5c8,7,12,18.2,12,33.6v74.2c-5.4,1.2-11.9,2.5-19.6,3.8c-7.8,1.3-15.6,2-23.5,2c-7.5,0-14.3-0.7-20.4-2.1
	c-6.1-1.4-11.2-3.6-15.4-6.7c-4.2-3-7.6-7.1-9.8-11.8c-2.3-4.8-3.4-10.6-3.4-17.3c0-6.6,1.3-12.4,4-17.4c2.6-4.9,6.4-9.2,10.9-12.5
	c4.8-3.4,10.2-5.9,15.9-7.4c6-1.6,12.3-2.4,18.9-2.4c4.9,0,8.9,0.1,12.1,0.3c3.1,0.2,5.8,0.5,7.9,0.8L199.2,326.3L199.2,326.3z
	 M269.2,385c2.9,1.1,5.9,1.9,9,2.3c3.1,0.5,7.1,0.7,12,0.7c5.5,0,10.6-0.9,15.2-2.7c4.6-1.7,8.6-4.6,11.9-8.2
	c3.3-3.7,5.9-8.4,7.8-14c1.9-5.6,2.9-12.3,2.9-20c0-12.3-2.3-22.1-6.8-29.3c-4.5-7.2-11.9-10.9-22.2-10.9c-3.8,0-7.5,0.7-11,2.1
	c-3.5,1.4-6.8,3.5-9.4,6.2c-2.8,2.8-5,6.3-6.7,10.5c-1.7,4.2-2.5,9.3-2.5,15.1V385L269.2,385L269.2,385z M246.4,285.9
	c3.2-0.6,6.4-0.9,9.7-0.9c1.5,0,3.1,0.1,4.8,0.2c1.7,0.2,3.3,0.4,4.8,0.7c0.1,0.3,0.3,1.3,0.6,2.9c0.2,1.6,0.5,3.3,0.7,5.2
	c0.2,1.8,0.5,3.6,0.7,5.3c0.2,1.7,0.3,2.8,0.3,3.2c1.5-2.5,3.4-4.9,5.5-7.2c2.3-2.4,4.9-4.5,7.7-6.2c3.2-1.9,6.6-3.4,10.1-4.4
	c4.1-1.1,8.3-1.7,12.5-1.6c6.9,0,13.3,1.2,19.2,3.5c5.9,2.3,11.1,6,15.2,10.7c4.2,4.9,7.5,11,9.9,18.5c2.4,7.5,3.6,16.3,3.6,26.5
	c0,20.3-5.5,36.2-16.5,47.7c-11,11.5-26.5,17.2-46.6,17.2c-3.5,0-6.9-0.2-10.4-0.7c-3.5-0.5-6.6-1.1-9.2-1.8v54.3
	c-1.9,0.3-3.9,0.6-5.9,0.7c-1.9,0.1-3.8,0.2-5.6,0.2c-1.9,0-3.8-0.1-5.6-0.2c-1.9-0.1-3.8-0.4-5.6-0.7V285.9L246.4,285.9z"/>
</svg>
