<?xml version="1.0" encoding="utf-8"?>
<!-- Generator: Adobe Illustrator 23.0.3, SVG Export Plug-In . SVG Version: 6.00 Build 0)  -->
<svg version="1.1" id="Layer_1" xmlns="http://www.w3.org/2000/svg" xmlns:xlink="http://www.w3.org/1999/xlink" x="0px" y="0px"
	 viewBox="0 0 851.9 191.6" style="enable-background:new 0 0 851.9 191.6;" xml:space="preserve">
<style type="text/css">
	.st0{fill:#203232;}
</style>
<g transform="matrix(1.4291 0 0 1.4291 -77.63 -55.768)">
	<g>
		<g>
			<path class="st0" d="M105,66.1c-11.9,0-18.8,5.4-22.1,9c-0.4-3.2-2.5-7.3-10.7-7.3H54.3v18.6h7.3c1.2,0,1.6,0.4,1.6,1.6v85.1
				h21.2v-31.8v-2.4c3.3,3,9.6,7.2,19.5,7.2c20.7,0,35.2-16.4,35.2-40C139.2,82.2,125.4,66.1,105,66.1 M100.7,127.6
				c-11.4,0-16.6-10.9-16.6-21.1c0-16,8.7-21.7,16.9-21.7c10,0,16.8,8.6,16.8,21.5C117.7,121.1,109.1,127.6,100.7,127.6"/>
		</g>
		<g>
			<path class="st0" d="M167.7,124.3V79.2c0-7.6-3.7-11.3-11.2-11.3h-19v18.6h7.3c1.2,0,1.6,0.4,1.6,1.6V133
				c0,7.7,3.6,11.3,11.2,11.3h19v-18.5h-7.3C168.2,125.9,167.7,125.4,167.7,124.3"/>
		</g>
		<g>
			<path class="st0" d="M223.1,66.1c-11.9,0-18.8,5.4-22.2,9c-0.4-3.2-2.5-7.3-10.7-7.3h-17.8v18.6h7.3c1.2,0,1.6,0.4,1.6,1.6v85.1
				h21.4v-31.8v-2.4c3.3,3,9.7,7.2,19.5,7.2c20.7,0,35.2-16.4,35.2-40C257.4,82.2,243.6,66.1,223.1,66.1 M218.8,127.6
				c-11.4,0-16.6-10.9-16.6-21.1c0-16,8.7-21.7,16.9-21.7c10,0,16.8,8.6,16.8,21.5C235.9,121.1,227.3,127.6,218.8,127.6"/>
		</g>
		<g>
			<path class="st0" d="M297.3,66.1c-22.9,0-38.8,16.5-38.8,40c0,23.2,17.2,40,41,40c18.7,0,30.1-11.1,30.6-11.5l0.9-0.8l-9.2-15.3
				l-1.4,1.3c-0.1,0.1-8.5,7.8-19.6,7.8c-10.6,0-18.4-6.5-20.3-16.7h50.3l0.1-1.4c0-0.2,0.5-4.7,0.5-6.9
				C331.4,80.8,317.7,66.1,297.3,66.1 M281.3,95.1c2.3-7.5,8.1-11.8,16-11.8c6.4,0,11.3,4.9,12.2,11.8H281.3z"/>
		</g>
		<g>
			<path class="st0" d="M408.6,124.3V50.4c0-7.6-3.7-11.3-11.3-11.3h-19v18.6h7.3c1.2,0,1.6,0.4,1.6,1.6v13.4
				c-3.1-2.8-9.2-6.5-19.8-6.5c-20.6,0-35,16.5-35,40c0,23.9,13.8,40,34.2,40c11.7,0,18.5-5.4,21.8-9.2c0.4,3.3,2.6,7.5,10.5,7.5
				h18.4V126h-7.1C409,125.9,408.6,125.4,408.6,124.3 M370.7,127.6c-10.1,0-16.6-8.4-16.6-21.5c0-12.7,6.8-21.2,16.9-21.2
				c11.5,0,16.6,10.6,16.6,21.1C387.6,122,378.9,127.6,370.7,127.6"/>
		</g>
		<g>
			<path class="st0" d="M464.6,66.8c-8.8,0-17,5.1-21.8,13.2v-1.7c0-6.9-3.8-10.5-11.3-10.5h-18.2v18.6h7.3c1.2,0,1.6,0.4,1.6,1.6
				v56.3h21.2v-30.6c0-4,0.5-7.9,1.5-11.5c3.2-10.6,11.7-14.3,18.5-14.3c2.4,0,4.2,0.3,4.2,0.3l1.8,0.3V67.4l-1.3-0.2
				C468.1,67.1,466.3,66.8,464.6,66.8"/>
		</g>
		<g>
			<path class="st0" d="M499.6,124.3V79.2c0-7.6-3.7-11.3-11.2-11.3h-17.2v18.6h5.5c1.2,0,1.6,0.4,1.6,1.6V133
				c0,7.7,3.6,11.3,11.2,11.3h19v-18.5h-7.3C500.1,125.9,499.6,125.4,499.6,124.3"/>
		</g>
		<g>
			<path class="st0" d="M579.7,67.9h-11.3c-6.6,0-10.2,2.3-12.3,7.9l-13.8,38.6c-0.5,1.4-0.9,3-1.3,4.6c-0.4-1.5-0.9-3.2-1.4-4.6
				l-13.8-38.6c-2.1-5.7-5.5-7.9-12.3-7.9h-12v18.6h3.1c1.7,0,2.2,0.6,2.6,1.6l21.4,56.3h23.9l21.4-56.3c0.4-1,0.9-1.6,2.6-1.6h3.3
				V67.9L579.7,67.9z"/>
		</g>
		<g>
			<path class="st0" d="M616.3,66.1c-22.9,0-38.8,16.5-38.8,40c0,23.2,17.2,40,41,40c18.7,0,30.1-11.1,30.6-11.5l0.9-0.8l-9.2-15.3
				l-1.4,1.3c-0.1,0.1-8.5,7.8-19.5,7.8c-10.6,0-18.4-6.5-20.3-16.7h50.3l0.1-1.4c0-0.2,0.4-4.7,0.4-6.9
				C650.4,80.8,636.7,66.1,616.3,66.1 M600.3,95.1c2.3-7.5,8.1-11.8,16-11.8c6.4,0,11.3,4.9,12.2,11.8H600.3z"/>
		</g>
		<g>
			<rect x="147.3" y="39" class="st0" width="18.9" height="19.9"/>
		</g>
		<g>
			<rect x="479.3" y="39" class="st0" width="18.9" height="19.9"/>
		</g>
	</g>
</g>
</svg>
