<svg width="111" height="33" viewBox="0 0 111 33" fill="none" xmlns="http://www.w3.org/2000/svg">
<g clip-path="url(#clip0_4031_10544)">
<path d="M13.1536 32.4136H97.8464C101.335 32.4136 104.681 31.0278 107.147 28.561C109.614 26.0942 111 22.7486 111 19.26V0H13.1536C9.66502 0 6.31936 1.38582 3.85259 3.85259C1.38582 6.31936 0 9.66502 0 13.1536V19.26C0 22.7486 1.38582 26.0942 3.85259 28.561C6.31936 31.0278 9.66502 32.4136 13.1536 32.4136Z" fill="#2589FF"/>
<path d="M22.3604 8.35938V21.3552H19.9438L19.7739 20.0904C18.968 21.1828 17.6753 21.5603 16.4021 21.5603C13.3276 21.5603 11.0166 19.7748 11.0166 16.7635C11.0166 13.6077 13.2851 11.9655 16.339 11.9655C17.4411 11.9655 19.1585 12.4862 19.7739 13.4353V8.35938H22.3604ZM13.6031 16.7635C13.6031 18.362 14.9189 19.4593 16.572 19.4593C18.2045 19.4593 19.6064 18.4178 19.6064 16.7635C19.6064 15.1637 18.2069 14.0859 16.572 14.0859C14.9189 14.0859 13.6031 15.1079 13.6031 16.7635Z" fill="white"/>
<path d="M32.8988 12.1886H35.3822V21.3549H32.9413L32.8138 20.0198C32.2203 21.0988 30.5878 21.6195 29.4214 21.6378C26.325 21.656 24.0347 19.9834 24.0347 16.7669C24.0347 13.6111 26.4306 11.9507 29.4845 11.9689C30.8839 11.9689 32.2203 12.5454 32.8138 13.457L32.8988 12.1886ZM26.6224 16.7633C26.6224 18.5099 28 19.5549 29.7175 19.5549C33.7897 19.5549 33.7897 13.9959 29.7175 13.9959C28 13.9922 26.6224 15.0154 26.6224 16.7633Z" fill="white"/>
<path d="M40.7653 9.60547V12.2138H43.6492V14.1559H40.7447V18.1164C40.7447 18.9903 41.2958 19.4175 42.1017 19.4175C42.5331 19.4074 42.9583 19.3125 43.3531 19.1384L44.0741 21.0743C43.3889 21.3251 42.6662 21.458 41.9366 21.4676C39.6681 21.5416 38.1837 20.408 38.1837 18.1212V14.1559H36.2319V12.2138H38.174V9.84701L40.7653 9.60547Z" fill="white"/>
<path d="M53.8693 12.1886H56.3502V21.3549H53.9117L53.7904 20.0198C53.1956 21.0988 51.5631 21.6195 50.3918 21.6378C47.2967 21.656 45.0063 19.9834 45.0063 16.7669C45.0063 13.6111 47.4023 11.9507 50.4562 11.9689C51.8556 11.9689 53.1908 12.5454 53.7855 13.457L53.8693 12.1886ZM47.5929 16.7633C47.5929 18.5099 48.9717 19.5549 50.6892 19.5549C54.7602 19.5549 54.7602 13.9959 50.6892 13.9959C48.9766 13.9922 47.5929 15.0154 47.5929 16.7633Z" fill="white"/>
<path d="M66.7411 11.2617L68.6491 12.5265L67.4827 13.8276C68.2886 14.6275 68.5848 15.539 68.5848 16.5428C68.5848 17.6765 68.0993 19.275 66.3794 19.9632C68.1187 20.7254 68.5423 21.8227 68.5423 22.9976C68.5423 25.5271 66.3369 27.088 63.3049 27.088C60.2729 27.088 58.0044 25.4713 58.0044 22.9976H60.5691C60.5691 24.1883 61.8205 24.9688 63.3049 24.9688C64.7893 24.9688 65.9558 24.2624 65.9558 22.9976C65.9558 21.7329 64.5988 21.1575 63.3049 21.1575C60.0399 21.1575 58.0044 19.4097 58.0044 16.5452C58.0044 13.6808 60.3785 11.8965 63.3049 11.8965C64.1327 11.8965 64.9799 11.99 65.7009 12.4172L66.7411 11.2617ZM60.5691 16.5428C60.5691 18.1413 61.7998 19.0917 63.3049 19.0917C64.7893 19.0917 66.0201 18.1207 66.0201 16.5428C66.0201 14.9649 64.7893 13.9587 63.3049 13.9587C61.7998 13.9587 60.5691 14.9431 60.5691 16.5428Z" fill="white"/>
<path d="M77.1939 21.3573V16.4488C77.1939 15.2411 76.4729 14.1427 75.0516 14.1427C73.6521 14.1427 72.8255 15.2351 72.8255 16.4488V21.3573H70.2378V12.1727H72.635L72.8255 13.2882C73.3766 12.3584 74.5855 12.0234 75.582 12.0234C76.8334 12.0234 78.0836 12.4701 78.6783 13.7348C79.6105 12.4325 80.8194 12.0611 82.1764 12.0611C85.1453 12.0611 86.6091 13.6596 86.6091 16.4124V21.3573H84.0213V16.4124C84.0213 15.1986 83.4484 14.1803 82.0489 14.1803C80.6495 14.1803 79.7804 15.2411 79.7804 16.4488V21.3573H77.1939Z" fill="white"/>
<path d="M97.5275 12.1883H100.008V21.3547H97.5712L97.4498 20.0195C96.855 21.0986 95.2225 21.6193 94.0513 21.6375C90.9549 21.6521 88.667 19.9807 88.667 16.763C88.667 13.6072 91.063 11.9468 94.1168 11.965C95.5163 11.965 96.8514 12.5415 97.4462 13.4531L97.5275 12.1883ZM91.2523 16.763C91.2523 18.5096 92.6299 19.5547 94.3486 19.5547C98.4196 19.5547 98.4196 13.9956 94.3486 13.9956C92.6299 13.992 91.2523 15.0152 91.2523 16.763Z" fill="white"/>
</g>
<defs>
<clipPath id="clip0_4031_10544">
<rect width="111" height="32.4136" fill="white"/>
</clipPath>
</defs>
</svg>
