<svg width="24" height="24" viewBox="0 0 24 24" fill="none" xmlns="http://www.w3.org/2000/svg">
<path d="M12 17.1034C11 17.1034 10.069 16.8276 9.24136 16.2759C8.41379 15.7241 7.79308 15.0345 7.37929 14.1724L3.24137 7C2.3793 8.55172 2 10.2414 2 12C2 14.5172 2.82758 16.6896 4.44828 18.5517C6.06898 20.4138 8.10343 21.5172 10.5173 21.8966L13.4138 16.8621C13.1379 16.9655 12.6207 17.1034 12 17.1034Z" fill="white"/>
<path d="M8.86019 7.86207C9.79121 7.13793 10.8257 6.82758 11.9981 6.82758H20.5843C19.6878 5.31035 18.4809 4.20687 16.9636 3.3448C15.4464 2.44828 13.7912 2 11.9981 2C10.4464 2 8.96363 2.34484 7.61883 3C6.27402 3.65516 4.99812 4.6207 4.10156 5.86207L6.99812 10.6207C7.27398 9.51722 7.92914 8.58621 8.86019 7.86207Z" fill="white"/>
<path d="M21.2434 8.24146H15.4503C16.4503 9.24145 17.14 10.5518 17.14 12.0001C17.14 13.0691 16.8296 14.0346 16.2434 14.9311L12.1055 22.0001C14.8296 21.9656 17.1744 21.0001 19.1055 19.0346C21.0365 17.0691 22.002 14.7242 22.002 12.0001C22.002 10.7242 21.7951 9.37938 21.2434 8.24146Z" fill="white"/>
<path d="M12.0001 8.20691C14.0691 8.20691 15.7932 9.93105 15.7932 12C15.7932 14.0689 14.0691 15.7931 12.0001 15.7931C9.93113 15.7931 8.20703 14.069 8.20703 12C8.20703 9.93101 9.93113 8.20691 12.0001 8.20691Z" fill="white"/>
</svg>
