<?xml version="1.0" encoding="UTF-8" standalone="no"?>
<!DOCTYPE svg PUBLIC "-//W3C//DTD SVG 1.1//EN" "http://www.w3.org/Graphics/SVG/1.1/DTD/svg11.dtd">
<!-- Created with Inkscape (http://www.inkscape.org/) by Marsupilami -->
<svg
   xmlns:svg="http://www.w3.org/2000/svg"
   xmlns="http://www.w3.org/2000/svg"
   id="svg4218"
   version="1.1"
   width="691.13751"
   height="192.89999">
  <defs
     id="defs4215">
    <radialGradient
       gradientTransform="translate(0.1)"
       id="SVGID_1_"
       cx="115.5686"
       cy="68.449997"
       r="127.8006"
       gradientUnits="userSpaceOnUse">
      <stop
         offset="0"
         style="stop-color:#328F8A"
         id="stop8101" />
      <stop
         offset="1"
         style="stop-color:#08AC4B"
         id="stop8103" />
    </radialGradient>
  </defs>
  <path
     style="fill:url(#SVGID_1_)"
     d="m 106.5,47.6 -91.9,99.9 c -1.4,-2.2 -2.7,-4.5 -3.8,-6.8 l 96.3,-96 c 0.6,-0.5 2.3,-2 1.8,-1.3 -0.3,0.3 -1.9,3.2 -2.4,4.2 z M 104,59.7 c 0,0 0,0 0,0 l -59.6,118 c 2,1.3 4.1,2.6 6.2,3.7 L 104.2,63.1 C 104.1,62 104,60.9 104,59.7 Z m 1.2,-8.6 c -0.1,-0.1 -0.3,0.4 -0.7,0.9 L 25.1,161.3 c 1.8,2 3.6,3.8 5.6,5.6 L 104.4,55.2 c 0.1,-1.2 0.5,-2.9 0.8,-4.1 z m 51.6,27.1 34.3,-0.2 c -0.4,-1.8 -0.8,-4.5 -1.2,-6.3 l -31.8,4.8 c -0.4,0.6 -0.8,1.1 -1.3,1.7 z m -28.4,10.6 33.6,78.4 c 1.7,-1.6 3.4,-3.3 5,-5 L 130.2,89.1 C 129.7,89 129,88.9 128.4,88.8 Z m 32.3,-17 c 0.1,0 0.3,-0.1 0.4,-0.2 l 23,-15.7 c -0.9,-1.8 -2.3,-4.4 -3.3,-6.2 L 162,68.3 c -0.3,1.3 -0.8,2.4 -1.3,3.5 z m -8.3,10.9 c -0.4,0.3 -0.9,0.7 -1.3,1 l 41.7,18.6 c 0.1,-1.8 0.4,-4.4 0.4,-6.2 z m -47.2,-14.6 -38,120.3 c 2.4,0.8 4.8,1.4 7.2,2 L 106.1,70.8 c -0.3,-0.9 -0.6,-1.8 -0.9,-2.7 z m 31.1,21.1 40.9,60 c 1.1,-1.8 2.8,-4.4 3.8,-6.2 L 137.8,89 c -0.4,0.1 -0.9,0.1 -1.5,0.2 z m 7.8,-1.8 44,39.3 c 0.6,-1.8 1.5,-4.6 2,-6.5 L 145.5,86.8 c -0.5,0.2 -1,0.4 -1.4,0.6 z m -23.2,-1 20.1,95.7 c 2.1,-1.1 4.6,-2.5 6.5,-3.7 l -25,-91.2 c -0.5,-0.3 -1.1,-0.6 -1.6,-0.8 z m -6.8,-4.5 3.2,108.8 c 2.5,-0.6 5,-1.2 7.5,-1.9 l -9,-105.5 c -0.7,-0.5 -1.2,-1 -1.7,-1.4 z m -22,110.9 c 1.4,0.1 2.9,0.1 4.4,0.1 1,0 2,0 3.1,-0.1 L 110.1,77.6 c -0.5,-0.6 -0.9,-1.3 -1.4,-2 z M 131.3,30 h 0.4 c 0.6,0 1.3,-0.1 1.9,-0.1 16.4,0 29.7,13.3 29.7,29.7 0,1.7 -0.2,3.4 -0.4,5.1 0.3,0 0.6,-0.2 0.7,-0.4 L 171,35.7 c -1.5,-1.8 -3.4,-4.3 -5.1,-6 l -2.3,20.5 c -0.4,-1.3 -1,-2.6 -2.2,-5.1 -0.4,-0.8 -0.9,-1.7 -1.5,-2.5 l -7.3,-24.5 c -2.5,-1.8 -5.1,-3.5 -7.8,-5.1 l 9.5,23.1 c -1.7,-1.6 -3.4,-3 -4.3,-3.8 L 130,6 C 126.8,4.8 123.5,3.8 120.1,2.9 L 144.5,30.3 143.9,30.2 104.5,0.4 C 101.9,0.2 99.2,0 96.5,0 95.8,0 95,0 94.3,0.1 l 38.9,26 L 79.1,1.6 C 76,2.2 73,2.9 70,3.7 l 58.6,23 L 54.5,9.6 C 51.7,11 49,12.4 46.3,14.1 L 121.4,27.8 33,23.9 c -2,1.8 -5,4.6 -6.8,6.6 L 117.9,30 16.3,43 c -1.7,2.5 -3.2,5.1 -4.7,7.7 L 114.9,32.7 4.6,67.1 c -0.8,2.5 -1.5,5 -2.1,7.6 L 112.6,35.5 0.2,91.4 c -0.1,1.7 -0.1,3.4 -0.1,5.1 0,0.7 -0.1,2.3 -0.1,3 l 111.1,-61 -109,77.9 c 0.5,2.5 1.2,4.9 1.9,7.4 l 106.8,-83 c 0.5,-0.6 1.1,-1.2 1.6,-1.8 1.2,-1.1 2.9,-2.6 4.8,-4 3.9,-2.8 9.8,-4.6 14.1,-5 z"
     id="path8105" />
  <path
     style="fill:#414042;fill-opacity:1"
     d="m 352.29922,57.59961 c -12.4,0 -21.09961,7.8 -21.09961,17.5 0,11.3 7.49961,15.20078 22.09961,19.80078 14.4,4.6 17.80078,8.19883 17.80078,15.29883 0,7.6 -6.60078,12.30078 -16.80078,12.30078 -9.6,0 -16.5,-4.80078 -19.5,-14.30078 l -5.79883,2.10156 c 3.2,11.1 12.20039,17.99844 24.90039,17.89844 13.6,0 23.59961,-7.29961 23.59961,-18.59961 0,-11 -6.89961,-15.69922 -21.09961,-20.19922 -14.3,-4.6 -18.80078,-7.20078 -18.80078,-14.80078 0,-6.2 5.49961,-11.09961 14.59961,-11.09961 8.5,0 14.50039,3.50078 17.90039,12.30078 l 5.5,-2.60156 c -3.2,-9.1 -10.50078,-15.59961 -23.30078,-15.59961 z m -111.09961,1.5 v 68 h 6.5 v -68 z m 24.40039,0 v 68 h 6.5 V 94.19922 h 36.80078 v 32.90039 h 6.5 v -68 h -6.5 V 88.19922 H 272.1 V 59.09961 Z m 145.40039,0 v 68 H 417.1 V 69.90039 h 0.19922 c 1.4,4.8 2.50117,7.69961 4.20117,12.09961 L 439.1,127 h 6 l 17.59961,-45 c 1.6,-4.4 3.30117,-8.90039 4.20117,-11.90039 H 467.1 v 57 h 6.59961 v -68 H 465.1 l -22.59961,59.5 h -0.20117 l -22.79883,-59.5 z m 166.19922,0 v 68 h 6.30078 v -15.29883 l 10.5,-11.20117 15.09961,26.5 h 6.80078 L 598.19961,95.80078 614.00039,78.69922 H 606.6 l -23.09961,25.5 V 59.09961 Z m 49,1.5 v 6.80078 h 6.70117 V 60.59961 Z M 651.6,61.30078 v 17.39844 h -8.5 v 5.40039 h 8.5 v 31.70117 c 0,8.3 3.50078,11.9 12.80078,12 2.2,0 4.69922,-0.30156 6.19922,-0.60156 v -5.39844 c -1.4,0.4 -3.29961,0.59961 -5.09961,0.59961 -5.9,0 -7.59961,-2.80039 -7.59961,-7.90039 V 84.09961 h 12.59961 V 78.69922 H 657.90078 V 61.30078 Z M 510.69961,77.69922 c -9.6,0 -16.29961,3.7 -22.09961,9 l 3.40039,4 c 5.1,-4.4 10.49961,-7.59961 18.09961,-7.59961 6.3,0 9.80078,3.20039 9.80078,9.90039 v 2.5 c -24.6,3.8 -32.80078,10.70078 -32.80078,20.30078 0,7.5 5.10078,12.1 13.80078,12 7.2,0 13.49961,-2.60117 19.09961,-7.70117 0,2.8 0.49961,4.90039 1.09961,6.90039 h 6.5 c -1,-2.4 -1.40039,-6.00039 -1.40039,-11.90039 v -22 c 0,-9.6 -4.7,-15.40039 -15.5,-15.40039 z m 55.90039,0 c -9.6,0 -15.39922,4.5 -19.19922,10.5 h -0.20117 v -9.59961 h -6.19922 V 127 h 6.29883 V 95.5 c 3.7,-7.6 10.00039,-12 17.90039,-12 0.2,0 1.90039,0.0996 1.90039,0.0996 l 0.59961,-5.90039 H 566.6 Z m 59.80078,0.90039 V 127 h 6.29883 V 78.59961 Z m -106.5,21.30078 V 115 c -4.9,4.8 -10.90078,7.59961 -17.80078,7.59961 -5.4,0 -8.80078,-2.59922 -8.80078,-7.69922 0,-6.4 5.80156,-11.5 26.60156,-15 z"
     id="path8113" />
  <path
     style="fill:#414042"
     d="m 680.2,79.1 c 0,-0.9 0.2,-1.7 0.5,-2.3 0.3,-0.7 0.7,-1.2 1.3,-1.7 0.6,-0.5 1.1,-0.8 1.8,-1 0.7,-0.2 1.4,-0.3 2.1,-0.3 0.8,0 1.5,0.2 2.1,0.4 0.7,0.3 1.2,0.6 1.7,1.1 0.5,0.5 0.8,1.1 1.1,1.8 0.3,0.7 0.4,1.5 0.3,2.4 0,0.9 -0.2,1.7 -0.5,2.3 -0.3,0.7 -0.7,1.2 -1.3,1.7 -0.5,0.4 -1.1,0.8 -1.8,1 -0.7,0.2 -1.4,0.3 -2.1,0.3 -0.8,0 -1.5,-0.2 -2.1,-0.4 -0.7,-0.3 -1.2,-0.6 -1.7,-1.1 -0.5,-0.5 -0.8,-1.1 -1.1,-1.8 -0.2,-0.7 -0.3,-1.5 -0.3,-2.4 z m 1.3,0.1 c 0,0.7 0.1,1.4 0.3,1.9 0.2,0.5 0.5,1 0.9,1.4 0.4,0.4 0.8,0.7 1.3,0.9 0.5,0.2 1,0.3 1.6,0.3 0.6,0 1.2,0 1.7,-0.2 0.5,-0.2 1,-0.4 1.4,-0.7 0.4,-0.3 0.7,-0.8 0.9,-1.3 0.2,-0.5 0.4,-1.2 0.4,-1.9 0,-0.7 -0.1,-1.4 -0.3,-1.9 -0.2,-0.5 -0.5,-1 -0.9,-1.4 -0.4,-0.4 -0.8,-0.7 -1.3,-0.9 -0.5,-0.2 -1,-0.3 -1.6,-0.3 -0.6,0 -1.2,0 -1.7,0.2 -0.5,0.2 -1,0.4 -1.4,0.7 -0.4,0.3 -0.7,0.8 -0.9,1.3 -0.2,0.5 -0.3,1.2 -0.4,1.9 z m 2.2,-2.6 c 0.2,-0.1 0.5,-0.1 0.9,-0.1 0.4,0 0.8,0 1.1,0 0.6,0 1.1,0.2 1.5,0.4 0.4,0.3 0.6,0.7 0.6,1.3 0,0.4 -0.2,0.8 -0.5,1 -0.3,0.2 -0.6,0.3 -1.1,0.4 l 0.6,0.3 1.4,2.3 h -1.3 l -1.4,-2.2 -1,-0.4 -0.1,2.5 h -1.1 z m 1.8,0.8 c -0.2,0 -0.3,0 -0.4,0 -0.1,0 -0.3,0 -0.3,0.1 l -0.1,1.5 h 0.7 c 0.4,0 0.7,0 0.9,-0.2 0.2,-0.1 0.3,-0.3 0.4,-0.6 0,-0.6 -0.4,-0.8 -1.2,-0.8 z"
     id="path8135" />
</svg>
