<svg width="32" height="32" viewBox="0 0 32 32" fill="none" xmlns="http://www.w3.org/2000/svg">
<g clip-path="url(#clip0_910_8677)">
<path d="M24.59 17.0847C24.59 17.6747 24.4025 18.1684 24.0275 18.5659C23.6525 18.9634 23.1696 19.2436 22.5788 19.4066V23.2991C22.5702 23.6489 22.4271 23.982 22.1793 24.2291C21.9315 24.4762 21.598 24.6183 21.2481 24.6259H17.3581C17.2848 23.9176 17.0231 23.3464 16.5731 22.9122C16.1529 22.4943 15.5845 22.2598 14.9919 22.2598C14.3993 22.2598 13.8308 22.4943 13.4106 22.9122C12.9606 23.3464 12.6981 23.9176 12.6231 24.6259H8.73312C8.38391 24.6174 8.05137 24.4748 7.80436 24.2278C7.55735 23.9808 7.41481 23.6483 7.40625 23.2991V19.4066C8.03173 19.3436 8.61874 19.0752 9.07563 18.6434C9.29551 18.4383 9.47083 18.1901 9.59071 17.9143C9.71059 17.6385 9.77245 17.341 9.77245 17.0403C9.77245 16.7396 9.71059 16.4421 9.59071 16.1663C9.47083 15.8905 9.29551 15.6423 9.07563 15.4372C8.61874 15.0054 8.03173 14.7371 7.40625 14.6741V10.7816C7.41481 10.4323 7.55735 10.0998 7.80436 9.8528C8.05137 9.60579 8.38391 9.46325 8.73312 9.45469H12.6475C12.7961 8.88912 13.099 8.37604 13.5225 7.97281C13.9337 7.58927 14.4752 7.37598 15.0375 7.37598C15.5998 7.37598 16.1413 7.58927 16.5525 7.97281C16.9762 8.37583 17.2792 8.889 17.4275 9.45469H21.2481C21.5973 9.46325 21.9299 9.60579 22.1769 9.8528C22.4239 10.0998 22.5664 10.4323 22.575 10.7816V14.6078C23.1417 14.7554 23.6481 15.0761 24.0238 15.5253C24.3949 15.9595 24.5961 16.5135 24.59 17.0847Z" fill="url(#paint0_linear_910_8677)"/>
<path d="M4.66797 5.33435L26.668 26.6677" stroke="white" stroke-width="2"/>
<path d="M4.66797 5.33435L26.668 26.6677" stroke="url(#paint1_linear_910_8677)" stroke-width="2"/>
<path d="M0.666667 16.001C0.666667 7.53292 7.53194 0.667643 16 0.667643C24.4681 0.667643 31.3333 7.53292 31.3333 16.001C31.3333 24.469 24.4681 31.3343 16 31.3343C7.53194 31.3343 0.666667 24.469 0.666667 16.001ZM21.5417 29.3935C23.2994 28.6611 24.8954 27.5893 26.2383 26.2393C27.5883 24.8964 28.6602 23.3004 29.3925 21.5426C30.1251 19.7843 30.5036 17.8988 30.5062 15.994C30.5088 14.0892 30.1356 12.2026 29.4079 10.4423C28.6802 8.68195 27.6123 7.08253 26.2654 5.73563C24.9185 4.38873 23.319 3.32082 21.5587 2.59311C19.7984 1.86539 17.9118 1.49215 16.007 1.49479C14.1022 1.49743 12.2166 1.87588 10.4583 2.60847C8.70061 3.34082 7.10461 4.41269 5.76172 5.7627C4.41171 7.10559 3.33984 8.70159 2.60749 10.4593C1.8749 12.2176 1.49645 14.1032 1.49381 16.008C1.49118 17.9128 1.86441 19.7994 2.59213 21.5597C3.31985 23.32 4.38775 24.9194 5.73465 26.2663C7.08155 27.6132 8.68097 28.6811 10.4413 29.4088C12.2016 30.1366 14.0882 30.5098 15.993 30.5072C17.8978 30.5045 19.7834 30.1261 21.5417 29.3935Z" fill="white"/>
<path d="M0.666667 16.001C0.666667 7.53292 7.53194 0.667643 16 0.667643C24.4681 0.667643 31.3333 7.53292 31.3333 16.001C31.3333 24.469 24.4681 31.3343 16 31.3343C7.53194 31.3343 0.666667 24.469 0.666667 16.001ZM21.5417 29.3935C23.2994 28.6611 24.8954 27.5893 26.2383 26.2393C27.5883 24.8964 28.6602 23.3004 29.3925 21.5426C30.1251 19.7843 30.5036 17.8988 30.5062 15.994C30.5088 14.0892 30.1356 12.2026 29.4079 10.4423C28.6802 8.68195 27.6123 7.08253 26.2654 5.73563C24.9185 4.38873 23.319 3.32082 21.5587 2.59311C19.7984 1.86539 17.9118 1.49215 16.007 1.49479C14.1022 1.49743 12.2166 1.87588 10.4583 2.60847C8.70061 3.34082 7.10461 4.41269 5.76172 5.7627C4.41171 7.10559 3.33984 8.70159 2.60749 10.4593C1.8749 12.2176 1.49645 14.1032 1.49381 16.008C1.49118 17.9128 1.86441 19.7994 2.59213 21.5597C3.31985 23.32 4.38775 24.9194 5.73465 26.2663C7.08155 27.6132 8.68097 28.6811 10.4413 29.4088C12.2016 30.1366 14.0882 30.5098 15.993 30.5072C17.8978 30.5045 19.7834 30.1261 21.5417 29.3935Z" fill="url(#paint2_linear_910_8677)"/>
<path d="M0.666667 16.001C0.666667 7.53292 7.53194 0.667643 16 0.667643C24.4681 0.667643 31.3333 7.53292 31.3333 16.001C31.3333 24.469 24.4681 31.3343 16 31.3343C7.53194 31.3343 0.666667 24.469 0.666667 16.001ZM21.5417 29.3935C23.2994 28.6611 24.8954 27.5893 26.2383 26.2393C27.5883 24.8964 28.6602 23.3004 29.3925 21.5426C30.1251 19.7843 30.5036 17.8988 30.5062 15.994C30.5088 14.0892 30.1356 12.2026 29.4079 10.4423C28.6802 8.68195 27.6123 7.08253 26.2654 5.73563C24.9185 4.38873 23.319 3.32082 21.5587 2.59311C19.7984 1.86539 17.9118 1.49215 16.007 1.49479C14.1022 1.49743 12.2166 1.87588 10.4583 2.60847C8.70061 3.34082 7.10461 4.41269 5.76172 5.7627C4.41171 7.10559 3.33984 8.70159 2.60749 10.4593C1.8749 12.2176 1.49645 14.1032 1.49381 16.008C1.49118 17.9128 1.86441 19.7994 2.59213 21.5597C3.31985 23.32 4.38775 24.9194 5.73465 26.2663C7.08155 27.6132 8.68097 28.6811 10.4413 29.4088C12.2016 30.1366 14.0882 30.5098 15.993 30.5072C17.8978 30.5045 19.7834 30.1261 21.5417 29.3935Z" stroke="url(#paint3_linear_910_8677)" stroke-width="1.33333"/>
</g>
<defs>
<linearGradient id="paint0_linear_910_8677" x1="15.9982" y1="7.37598" x2="15.9982" y2="24.6259" gradientUnits="userSpaceOnUse">
<stop stop-color="#2589FF" stop-opacity="0.3"/>
<stop offset="1" stop-color="#2589FF"/>
</linearGradient>
<linearGradient id="paint1_linear_910_8677" x1="15.3346" y1="16.001" x2="14.4208" y2="16.9719" gradientUnits="userSpaceOnUse">
<stop stop-color="#4C9EFF"/>
<stop offset="1" stop-color="#2589FF"/>
</linearGradient>
<linearGradient id="paint2_linear_910_8677" x1="16" y1="0.000976562" x2="16" y2="32.001" gradientUnits="userSpaceOnUse">
<stop stop-color="#2589FF" stop-opacity="0.3"/>
<stop offset="1" stop-color="#2589FF"/>
</linearGradient>
<linearGradient id="paint3_linear_910_8677" x1="16" y1="0.000976562" x2="16" y2="32.001" gradientUnits="userSpaceOnUse">
<stop stop-color="#2589FF" stop-opacity="0.3"/>
<stop offset="1" stop-color="#2589FF"/>
</linearGradient>
<clipPath id="clip0_910_8677">
<rect width="32" height="32" fill="white"/>
</clipPath>
</defs>
</svg>
