<svg width="32" height="32" viewBox="0 0 32 32" fill="none" xmlns="http://www.w3.org/2000/svg">
<path fill-rule="evenodd" clip-rule="evenodd" d="M12.7424 1.53036H17.5717V3.95349C19.1707 4.27224 20.6575 4.90136 21.9671 5.77524L23.6812 4.06105L27.0961 7.47593L25.3818 9.19012C26.2558 10.4996 26.8846 11.9866 27.2036 13.5854H29.6267V18.4147H27.2036C27.1879 18.4929 27.1716 18.5707 27.1545 18.6484C26.7498 18.5699 26.332 18.5284 25.9042 18.5284C25.1587 18.5284 24.4424 18.6536 23.775 18.8836C24.1063 17.9383 24.2869 16.9222 24.2869 15.8637C24.2869 10.8214 20.1994 6.73374 15.1571 6.73374C10.1147 6.73374 6.02725 10.8213 6.02725 15.8636C6.02725 20.9058 10.1147 24.9935 15.1571 24.9935C16.7181 24.9935 18.1873 24.6014 19.4723 23.9109C19.4059 24.2844 19.3713 24.6689 19.3713 25.0614C19.3713 25.8774 19.5212 26.6582 19.7944 27.3782C19.0844 27.6679 18.3409 27.8931 17.5717 28.0466V30.4696H12.7424V28.0466C11.1436 27.7278 9.65675 27.0988 8.34706 26.2249L6.63294 27.939L3.21813 24.5242L4.93225 22.8102C4.05813 21.5006 3.42931 20.0136 3.1105 18.4146H0.6875V13.5853H3.1105C3.42925 11.9864 4.05837 10.4996 4.93225 9.18993L3.21813 7.4758L6.63294 4.06099L8.34706 5.77512C9.65662 4.90111 11.1437 4.2723 12.7424 3.95349V1.53036ZM25.9043 19.6533C22.9175 19.6533 20.4963 22.0746 20.4963 25.0614C20.4963 28.0482 22.9175 30.4696 25.9043 30.4696C28.8913 30.4696 31.3125 28.0482 31.3125 25.0614C31.3125 22.0746 28.8913 19.6533 25.9043 19.6533ZM27.9521 22.5951L24.7485 25.7988L23.6551 24.4229C23.3862 24.0847 22.894 24.0284 22.5557 24.2974C22.2174 24.5663 22.1612 25.0586 22.4301 25.3968L24.0389 27.4215C24.3172 27.82 24.8901 27.8745 25.2367 27.5278L29.0607 23.7038C29.3667 23.3977 29.3667 22.9012 29.0607 22.5951C28.7546 22.2891 28.2583 22.2891 27.9521 22.5951ZM15.1571 8.85974C11.2889 8.85974 8.15319 11.9955 8.15319 15.8636C8.15319 19.7317 11.2889 22.8675 15.1571 22.8675C19.0252 22.8675 22.1609 19.7317 22.1609 15.8636C22.1609 11.9955 19.0251 8.85974 15.1571 8.85974ZM15.7196 15.0773V10.846C15.7196 10.5353 15.4678 10.2835 15.1571 10.2835C14.8464 10.2835 14.5946 10.5353 14.5946 10.846V15.6767L11.7308 17.3302C11.4626 17.4856 11.3711 17.8289 11.5264 18.0971C11.6816 18.3652 12.0251 18.4567 12.2933 18.3014L14.6366 16.9485C14.7209 17.1531 14.9221 17.2972 15.1571 17.2972C15.4678 17.2972 15.7196 17.0454 15.7196 16.7347V16.322L16.0724 16.1183C16.3406 15.9642 16.4331 15.6218 16.279 15.3536C16.1624 15.1506 15.938 15.0483 15.7196 15.0773Z" fill="url(#paint0_linear_910_8641)"/>
<defs>
<linearGradient id="paint0_linear_910_8641" x1="16" y1="1.53036" x2="16" y2="30.4696" gradientUnits="userSpaceOnUse">
<stop stop-color="#2589FF" stop-opacity="0.3"/>
<stop offset="1" stop-color="#2589FF"/>
</linearGradient>
</defs>
</svg>
