<svg width="32" height="32" viewBox="0 0 32 32" fill="none" xmlns="http://www.w3.org/2000/svg">
<g clip-path="url(#clip0_910_8647)">
<path d="M14.4523 3.22956L14.2579 4.36448C14.2257 4.55164 14.3027 4.74075 14.4565 4.85261C14.6107 4.96447 14.8142 4.97885 14.9819 4.89038L16.0011 4.35449L17.0202 4.89038C17.0931 4.92889 17.173 4.9479 17.2525 4.9479C17.3558 4.9479 17.4589 4.91597 17.5459 4.85261C17.6996 4.74075 17.7764 4.55164 17.7445 4.36448L17.5498 3.22956L18.3742 2.42535C18.5102 2.29277 18.5594 2.09464 18.5007 1.91382C18.4417 1.73324 18.2855 1.60139 18.0974 1.5741L16.9578 1.40838L16.4482 0.375576C16.2801 0.0346386 15.7215 0.0346386 15.5534 0.375576L15.0438 1.40838L13.9045 1.5741C13.7161 1.60139 13.5599 1.73324 13.5012 1.91382C13.4422 2.09464 13.4912 2.29277 13.6274 2.42535L14.4523 3.22956Z" fill="url(#paint0_linear_910_8647)"/>
<path d="M4.96796 7.22236L4.77348 8.35727C4.74131 8.54444 4.81832 8.73355 4.9721 8.84541C5.12636 8.95727 5.32936 8.97165 5.49752 8.88318L6.51668 8.34728L7.53583 8.88318C7.6087 8.92169 7.68863 8.9407 7.76808 8.9407C7.87141 8.9407 7.9745 8.90877 8.0615 8.84541C8.21527 8.73355 8.29204 8.54444 8.26011 8.35727L8.0654 7.22236L8.88984 6.41814C9.02582 6.28557 9.07505 6.08744 9.01632 5.90662C8.95734 5.72603 8.80113 5.59419 8.61299 5.5669L7.47345 5.40118L6.96387 4.36837C6.79571 4.02744 6.23715 4.02744 6.069 4.36837L5.55942 5.40118L4.42012 5.5669C4.23173 5.59419 4.07552 5.72603 4.01679 5.90662C3.95781 6.08744 4.0068 6.28557 4.14303 6.41814L4.96796 7.22236Z" fill="url(#paint1_linear_910_8647)"/>
<path d="M23.9328 7.22236L23.7383 8.35727C23.7062 8.54444 23.7832 8.73355 23.9369 8.84541C24.0912 8.95727 24.2947 8.97165 24.4624 8.88318L25.4815 8.34728L26.5007 8.88318C26.5735 8.92169 26.6535 8.9407 26.7329 8.9407C26.8363 8.9407 26.9393 8.90877 27.0263 8.84541C27.1801 8.73355 27.2569 8.54444 27.225 8.35727L27.0302 7.22236L27.8547 6.41814C27.9907 6.28557 28.0399 6.08744 27.9812 5.90662C27.9222 5.72603 27.766 5.59419 27.5778 5.5669L26.4383 5.40118L25.9287 4.36837C25.7606 4.02744 25.202 4.02744 25.0338 4.36837L24.5243 5.40118L23.385 5.5669C23.1966 5.59419 23.0404 5.72603 22.9816 5.90662C22.9227 6.08744 22.9716 6.28557 23.1079 6.41814L23.9328 7.22236Z" fill="url(#paint2_linear_910_8647)"/>
<path d="M8.61299 24.5327L7.47345 24.367L6.96387 23.3342C6.79571 22.9933 6.23715 22.9933 6.069 23.3342L5.55942 24.367L4.42012 24.5327C4.23198 24.56 4.07577 24.6919 4.01679 24.8724C3.95781 25.0533 4.0068 25.2514 4.14303 25.384L4.96747 26.1877L4.77299 27.3226C4.74083 27.5098 4.81784 27.6989 4.97161 27.8107C5.12587 27.9226 5.32888 27.9365 5.49703 27.8485L6.51619 27.3126L7.53535 27.8485C7.60821 27.887 7.68815 27.906 7.76759 27.906C7.87092 27.906 7.97401 27.8741 8.06101 27.8107C8.21479 27.6989 8.29155 27.5098 8.25963 27.3226L8.06491 26.1877L8.88935 25.3835C9.02534 25.2509 9.07456 25.0528 9.01583 24.8719C8.95686 24.6914 8.80113 24.56 8.61299 24.5327Z" fill="url(#paint3_linear_910_8647)"/>
<path d="M27.5817 24.5327L26.4422 24.367L25.9326 23.3342C25.7645 22.9933 25.2059 22.9933 25.0377 23.3342L24.5282 24.367L23.3889 24.5327C23.2007 24.56 23.0445 24.6919 22.9855 24.8724C22.9266 25.0533 22.9755 25.2514 23.1118 25.384L23.9362 26.1877L23.7417 27.3226C23.7096 27.5098 23.7866 27.6989 23.9404 27.8107C24.0946 27.9226 24.2981 27.9365 24.4658 27.8485L25.4849 27.3126L26.5041 27.8485C26.577 27.887 26.6569 27.906 26.7363 27.906C26.8397 27.906 26.9428 27.8741 27.0298 27.8107C27.1835 27.6989 27.2603 27.5098 27.2284 27.3226L27.0337 26.1877L27.8581 25.3835C27.9941 25.2509 28.0433 25.0528 27.9846 24.8719C27.9256 24.6914 27.7699 24.56 27.5817 24.5327Z" fill="url(#paint4_linear_910_8647)"/>
<path d="M31.9773 15.3895C31.9183 15.2089 31.7621 15.0771 31.5739 15.0498L30.4344 14.8841L29.9248 13.8513C29.7567 13.5103 29.1981 13.5103 29.0299 13.8513L28.5204 14.8841L27.3811 15.0498C27.1927 15.0771 27.0365 15.2089 26.9777 15.3895C26.9188 15.5704 26.9677 15.7685 27.104 15.9011L27.9284 16.7048L27.7339 17.8397C27.7018 18.0269 27.7788 18.216 27.9325 18.3278C28.0861 18.4397 28.2898 18.4541 28.458 18.3656L29.4771 17.8297L30.4963 18.3656C30.5692 18.4041 30.6491 18.4231 30.7285 18.4231C30.8316 18.4231 30.9349 18.3912 31.0219 18.3278C31.1757 18.216 31.2525 18.0269 31.2206 17.8397L31.0258 16.7048L31.8503 15.9006C31.9872 15.7685 32.036 15.5704 31.9773 15.3895Z" fill="url(#paint5_linear_910_8647)"/>
<path d="M4.26793 17.8402L4.07321 16.7053L4.89765 15.9011C5.03364 15.7685 5.08286 15.5704 5.02413 15.3895C4.96516 15.2089 4.80894 15.0771 4.62081 15.0498L3.48126 14.8841L2.97168 13.8513C2.80353 13.5103 2.24496 13.5103 2.07681 13.8513L1.56723 14.8841L0.427928 15.0498C0.239547 15.0771 0.0833343 15.2089 0.0246023 15.3895C-0.0343733 15.5704 0.0146106 15.7685 0.15084 15.9011L0.97528 16.7048L0.780807 17.8397C0.748638 18.0269 0.825648 18.216 0.979423 18.3278C1.13344 18.4397 1.33718 18.4541 1.50484 18.3656L2.524 17.8297L3.54316 18.3656C3.61603 18.4041 3.69596 18.4231 3.77541 18.4231C3.87849 18.4231 3.98182 18.3912 4.06882 18.3278C4.22309 18.2165 4.29985 18.0273 4.26793 17.8402Z" fill="url(#paint6_linear_910_8647)"/>
<path d="M18.0974 28.5255L16.9578 28.3598L16.4482 27.327C16.2801 26.9861 15.7215 26.9861 15.5534 27.327L15.0438 28.3598L13.9045 28.5255C13.7164 28.5528 13.5601 28.6847 13.5012 28.8652C13.4422 29.0461 13.4912 29.2442 13.6274 29.3768L14.4518 30.1805L14.2574 31.3154C14.2252 31.5026 14.3022 31.6917 14.456 31.8035C14.6102 31.9159 14.8137 31.9298 14.9814 31.8413L16.0006 31.3054L17.0197 31.8413C17.0926 31.8798 17.1725 31.8988 17.252 31.8988C17.3553 31.8988 17.4584 31.8669 17.5454 31.8035C17.6992 31.6917 17.7759 31.5026 17.744 31.3154L17.5493 30.1805L18.3737 29.3763C18.5097 29.2437 18.5589 29.0456 18.5002 28.8647C18.4412 28.6842 18.2855 28.5528 18.0974 28.5255Z" fill="url(#paint7_linear_910_8647)"/>
<path d="M16.028 12.093C13.8264 12.093 12.0352 13.8842 12.0352 16.0858C12.0352 18.2874 13.8264 20.0786 16.028 20.0786C18.2296 20.0786 20.0208 18.2874 20.0208 16.0858C20.0208 13.8842 18.2296 12.093 16.028 12.093ZM15.9122 17.9026C15.8223 18.0103 15.6916 18.0751 15.5513 18.0817C15.5437 18.0822 15.5364 18.0822 15.5289 18.0822C15.3965 18.0822 15.2698 18.0298 15.176 17.936L14.1778 16.9378L14.8835 16.232L15.4955 16.844L17.641 14.269L18.4077 14.908L15.9122 17.9026Z" fill="url(#paint8_linear_910_8647)"/>
<path d="M23.4362 11.0509L16.2675 7.10902C16.1179 7.02665 15.9361 7.02665 15.7864 7.10902L8.61772 11.0509C8.44469 11.1462 8.3438 11.3348 8.36134 11.5315L8.78953 16.4537C9.00959 18.989 10.3458 21.261 12.4538 22.6869L15.7479 24.9138C15.8322 24.9708 15.9302 24.9991 16.0275 24.9991C16.1247 24.9991 16.2227 24.9708 16.307 24.9138L19.6011 22.6864C21.7091 21.261 23.0448 18.989 23.2654 16.4537L23.6936 11.5315C23.7101 11.3348 23.6092 11.1462 23.4362 11.0509ZM16.027 21.0767C13.2748 21.0767 11.036 18.8379 11.036 16.0858C11.036 13.3336 13.2748 11.0948 16.027 11.0948C18.7791 11.0948 21.018 13.3336 21.018 16.0858C21.018 18.8379 18.7791 21.0767 16.027 21.0767Z" fill="url(#paint9_linear_910_8647)"/>
</g>
<defs>
<linearGradient id="paint0_linear_910_8647" x1="16.0008" y1="0.119873" x2="16.0008" y2="4.9479" gradientUnits="userSpaceOnUse">
<stop stop-color="#2589FF" stop-opacity="0.3"/>
<stop offset="1" stop-color="#2589FF"/>
</linearGradient>
<linearGradient id="paint1_linear_910_8647" x1="6.51646" y1="4.11267" x2="6.51646" y2="8.9407" gradientUnits="userSpaceOnUse">
<stop stop-color="#2589FF" stop-opacity="0.3"/>
<stop offset="1" stop-color="#2589FF"/>
</linearGradient>
<linearGradient id="paint2_linear_910_8647" x1="25.4813" y1="4.11267" x2="25.4813" y2="8.9407" gradientUnits="userSpaceOnUse">
<stop stop-color="#2589FF" stop-opacity="0.3"/>
<stop offset="1" stop-color="#2589FF"/>
</linearGradient>
<linearGradient id="paint3_linear_910_8647" x1="6.51621" y1="23.0785" x2="6.51621" y2="27.906" gradientUnits="userSpaceOnUse">
<stop stop-color="#2589FF" stop-opacity="0.3"/>
<stop offset="1" stop-color="#2589FF"/>
</linearGradient>
<linearGradient id="paint4_linear_910_8647" x1="25.485" y1="23.0785" x2="25.485" y2="27.906" gradientUnits="userSpaceOnUse">
<stop stop-color="#2589FF" stop-opacity="0.3"/>
<stop offset="1" stop-color="#2589FF"/>
</linearGradient>
<linearGradient id="paint5_linear_910_8647" x1="29.4774" y1="13.5956" x2="29.4774" y2="18.4231" gradientUnits="userSpaceOnUse">
<stop stop-color="#2589FF" stop-opacity="0.3"/>
<stop offset="1" stop-color="#2589FF"/>
</linearGradient>
<linearGradient id="paint6_linear_910_8647" x1="2.52427" y1="13.5956" x2="2.52427" y2="18.4231" gradientUnits="userSpaceOnUse">
<stop stop-color="#2589FF" stop-opacity="0.3"/>
<stop offset="1" stop-color="#2589FF"/>
</linearGradient>
<linearGradient id="paint7_linear_910_8647" x1="16.0006" y1="27.0713" x2="16.0006" y2="31.899" gradientUnits="userSpaceOnUse">
<stop stop-color="#2589FF" stop-opacity="0.3"/>
<stop offset="1" stop-color="#2589FF"/>
</linearGradient>
<linearGradient id="paint8_linear_910_8647" x1="16.028" y1="12.093" x2="16.028" y2="20.0786" gradientUnits="userSpaceOnUse">
<stop stop-color="#2589FF" stop-opacity="0.3"/>
<stop offset="1" stop-color="#2589FF"/>
</linearGradient>
<linearGradient id="paint9_linear_910_8647" x1="16.0274" y1="7.04724" x2="16.0274" y2="24.9991" gradientUnits="userSpaceOnUse">
<stop stop-color="#2589FF" stop-opacity="0.3"/>
<stop offset="1" stop-color="#2589FF"/>
</linearGradient>
<clipPath id="clip0_910_8647">
<rect width="32" height="32" fill="white"/>
</clipPath>
</defs>
</svg>
