<svg width="32" height="32" viewBox="0 0 32 32" fill="none" xmlns="http://www.w3.org/2000/svg">
<g clip-path="url(#clip0_910_8669)">
<path d="M23.0254 6.67864L20.1947 1.82931C20.0601 1.59864 19.8387 1.43064 19.5801 1.36398C19.3227 1.29998 19.0467 1.33731 18.8174 1.47464L10.1641 6.66664L23.0254 6.67864Z" fill="url(#paint0_linear_910_8669)"/>
<path d="M4 8.00002C3.26667 8.00002 2.66667 7.40002 2.66667 6.66669C2.66667 5.93335 3.26667 5.33335 4 5.33335H8.49333L12.9467 2.66669H4C2.02667 2.66669 0.386667 4.10669 0.0666667 6.00002C0.04 6.10669 0 6.21335 0 6.33335V26.6667C0 28.8667 1.8 30.6667 4 30.6667H26.6667C28.1333 30.6667 29.3333 29.4667 29.3333 28V25.3334H26C22.6933 25.3334 20 22.64 20 19.3334C20 16.0267 22.6933 13.3334 26 13.3334H29.3333V10.6667C29.3333 9.20002 28.1333 8.00002 26.6667 8.00002H4ZM25.3333 5.33335C25.3333 3.98669 24.3333 2.86669 23.0267 2.69335L25.3333 6.66669V5.33335Z" fill="url(#paint1_linear_910_8669)"/>
<path d="M31 15.3333H26C23.7947 15.3333 22 17.128 22 19.3333C22 21.5386 23.7947 23.3333 26 23.3333H31C31.552 23.3333 32 22.8853 32 22.3333V16.3333C32 15.7813 31.552 15.3333 31 15.3333ZM26 20.6666C25.264 20.6666 24.6667 20.0693 24.6667 19.3333C24.6667 18.5973 25.264 18 26 18C26.736 18 27.3333 18.5973 27.3333 19.3333C27.3333 20.0693 26.736 20.6666 26 20.6666Z" fill="url(#paint2_linear_910_8669)"/>
</g>
<defs>
<linearGradient id="paint0_linear_910_8669" x1="16.5947" y1="1.33362" x2="16.5947" y2="6.67864" gradientUnits="userSpaceOnUse">
<stop stop-color="#2589FF" stop-opacity="0.3"/>
<stop offset="1" stop-color="#2589FF"/>
</linearGradient>
<linearGradient id="paint1_linear_910_8669" x1="14.6667" y1="2.66669" x2="14.6667" y2="30.6667" gradientUnits="userSpaceOnUse">
<stop stop-color="#2589FF" stop-opacity="0.3"/>
<stop offset="1" stop-color="#2589FF"/>
</linearGradient>
<linearGradient id="paint2_linear_910_8669" x1="27" y1="15.3333" x2="27" y2="23.3333" gradientUnits="userSpaceOnUse">
<stop stop-color="#2589FF" stop-opacity="0.3"/>
<stop offset="1" stop-color="#2589FF"/>
</linearGradient>
<clipPath id="clip0_910_8669">
<rect width="32" height="32" fill="white"/>
</clipPath>
</defs>
</svg>
